PathFileType	4	(X/Y/Z)	E:/Microgravity/Neeraj_13_07_24_t02 _without_weight_pp.trc													
DataRate	CameraRate	NumFrames	NumMarkers	Units	OrigDataRate	OrigDataStartFrame	OrigNumFrames									
120	120	58	5	m	120	4412	7058									
Frame#	Time	RHAND			r_radius_styloid			RWRB			r_humerus_epicondyle			r_acromion		
		X1	Y1	Z1	X2	Y2	Z2	X3	Y3	Z3	X4	Y4	Z4	X5	Y5	Z5
																
4412	36.758	0.20947	-0.02188	0.20376	0.15175	-0.09246	0.26422	0.1988	-0.13064	0.18516	-0.00875	-0.23932	0.27811	-0.02065	0.07944	0.19219
4413	36.767	0.20946	-0.0219	0.20375	0.15173	-0.09248	0.26421	0.19878	-0.13067	0.18516	-0.0088	-0.23933	0.27809	-0.02067	0.07943	0.19219
4414	36.775	0.20946	-0.02192	0.20374	0.15171	-0.09251	0.26421	0.19876	-0.13069	0.18516	-0.00884	-0.23935	0.27806	-0.02068	0.07943	0.1922
4415	36.783	0.20947	-0.02195	0.20373	0.1517	-0.09255	0.2642	0.19875	-0.13072	0.18517	-0.0089	-0.23937	0.27801	-0.02069	0.07942	0.19221
4416	36.792	0.20948	-0.02198	0.20372	0.15169	-0.09258	0.2642	0.19874	-0.13076	0.18517	-0.00896	-0.2394	0.27794	-0.02071	0.07941	0.19223
4417	36.8	0.20951	-0.02201	0.2037	0.15168	-0.09262	0.2642	0.19874	-0.1308	0.18517	-0.00904	-0.23943	0.27785	-0.02072	0.0794	0.19224
4418	36.808	0.20954	-0.02204	0.20368	0.15168	-0.09266	0.26421	0.19873	-0.13084	0.18518	-0.00915	-0.23948	0.27771	-0.02073	0.07939	0.19225
4419	36.817	0.2096	-0.02208	0.20364	0.15169	-0.0927	0.26421	0.19873	-0.13088	0.18519	-0.00928	-0.23953	0.27753	-0.02074	0.07938	0.19227
4420	36.825	0.20967	-0.02211	0.2036	0.15171	-0.09274	0.26421	0.19874	-0.13093	0.18519	-0.00945	-0.2396	0.27727	-0.02076	0.07938	0.19228
4421	36.833	0.20974	-0.02214	0.20356	0.15173	-0.09278	0.26422	0.19874	-0.13099	0.1852	-0.00968	-0.23969	0.27693	-0.02077	0.07937	0.1923
4422	36.842	0.20983	-0.02218	0.20351	0.15176	-0.09282	0.26422	0.19875	-0.13104	0.18521	-0.00993	-0.23979	0.27653	-0.02078	0.07937	0.19232
4423	36.85	0.20992	-0.02223	0.20347	0.15179	-0.09287	0.26423	0.19877	-0.1311	0.18522	-0.01015	-0.23989	0.27619	-0.02079	0.07936	0.19235
4424	36.858	0.21001	-0.02228	0.20342	0.15182	-0.09292	0.26425	0.19878	-0.13115	0.18523	-0.0103	-0.23996	0.27596	-0.0208	0.07935	0.19238
4425	36.867	0.21012	-0.02234	0.20336	0.15186	-0.09297	0.26426	0.1988	-0.13121	0.18524	-0.0104	-0.24002	0.27582	-0.02081	0.07934	0.19241
4426	36.875	0.21024	-0.0224	0.20329	0.15189	-0.09302	0.26428	0.19883	-0.13126	0.18526	-0.01046	-0.24006	0.27574	-0.02081	0.07933	0.19244
4427	36.883	0.21038	-0.02247	0.20322	0.15193	-0.09307	0.26431	0.19885	-0.13132	0.18527	-0.01048	-0.2401	0.27572	-0.02082	0.07932	0.19248
4428	36.892	0.21055	-0.02254	0.20311	0.15196	-0.09312	0.26434	0.19887	-0.13138	0.1853	-0.01048	-0.24013	0.27574	-0.02083	0.0793	0.19251
4429	36.9	0.21077	-0.02264	0.20294	0.152	-0.09316	0.26437	0.1989	-0.13143	0.18532	-0.01045	-0.24015	0.27582	-0.02084	0.07929	0.19255
4430	36.908	0.21101	-0.02275	0.20277	0.15204	-0.09321	0.2644	0.19892	-0.13149	0.18535	-0.01038	-0.24016	0.27595	-0.02085	0.07928	0.19259
4431	36.917	0.21121	-0.02283	0.20269	0.15207	-0.09325	0.26444	0.19894	-0.13154	0.18538	-0.01028	-0.24015	0.27614	-0.02086	0.07927	0.19263
4432	36.925	0.21131	-0.02286	0.20278	0.15211	-0.09329	0.26448	0.19897	-0.13158	0.18541	-0.01011	-0.24012	0.27642	-0.02088	0.07926	0.19267
4433	36.933	0.2114	-0.02284	0.20298	0.15214	-0.09333	0.26452	0.19899	-0.13163	0.18544	-0.00988	-0.24005	0.2768	-0.02089	0.07925	0.19272
4434	36.942	0.21151	-0.02282	0.20316	0.15218	-0.09336	0.26457	0.19902	-0.13167	0.18548	-0.0096	-0.23996	0.27726	-0.02091	0.07924	0.19276
4435	36.95	0.21163	-0.02279	0.20331	0.15222	-0.09339	0.26463	0.19904	-0.13171	0.18551	-0.00935	-0.23989	0.27766	-0.02093	0.07923	0.19282
4436	36.958	0.21178	-0.02274	0.20342	0.15226	-0.09342	0.26468	0.19907	-0.13174	0.18555	-0.00916	-0.23983	0.27796	-0.02095	0.07923	0.19287
4437	36.967	0.21193	-0.02269	0.20352	0.1523	-0.09345	0.26474	0.19909	-0.13178	0.18559	-0.00901	-0.2398	0.27819	-0.02096	0.07923	0.19293
4438	36.975	0.21205	-0.02267	0.2036	0.15234	-0.09347	0.26479	0.19912	-0.13182	0.18563	-0.0089	-0.23977	0.27837	-0.02098	0.07923	0.19298
4439	36.983	0.21214	-0.02268	0.20368	0.15238	-0.0935	0.26485	0.19915	-0.13186	0.18567	-0.00881	-0.23975	0.27852	-0.021	0.07923	0.19303
4440	36.992	0.21222	-0.0227	0.20374	0.15242	-0.09353	0.2649	0.19918	-0.1319	0.18572	-0.00873	-0.23973	0.27864	-0.02102	0.07923	0.19308
4441	37	0.21228	-0.02274	0.20381	0.15247	-0.09356	0.26494	0.19922	-0.13194	0.18577	-0.00866	-0.23972	0.27874	-0.02104	0.07923	0.19313
4442	37.008	0.21233	-0.0228	0.20386	0.15252	-0.0936	0.265	0.19927	-0.13199	0.18582	-0.0086	-0.23971	0.27883	-0.02107	0.07923	0.19318
4443	37.017	0.2124	-0.02286	0.20392	0.15257	-0.09364	0.26505	0.19932	-0.13205	0.18587	-0.00854	-0.2397	0.27892	-0.02109	0.07923	0.19322
4444	37.025	0.21246	-0.02294	0.20397	0.15263	-0.09368	0.26511	0.19937	-0.13211	0.18592	-0.00848	-0.23969	0.27899	-0.02111	0.07923	0.19327
4445	37.033	0.21254	-0.02302	0.20401	0.1527	-0.09373	0.26517	0.19942	-0.13218	0.18598	-0.00843	-0.23968	0.27907	-0.02113	0.07923	0.19332
4446	37.042	0.21262	-0.02313	0.20404	0.15277	-0.09379	0.26523	0.19949	-0.13226	0.18603	-0.00839	-0.23967	0.27914	-0.02115	0.07924	0.19337
4447	37.05	0.2127	-0.02325	0.20407	0.15284	-0.09384	0.26529	0.19955	-0.13235	0.18609	-0.00834	-0.23966	0.27921	-0.02116	0.07924	0.19342
4448	37.058	0.21278	-0.02339	0.20408	0.15292	-0.0939	0.26535	0.19963	-0.13245	0.18614	-0.0083	-0.23966	0.27928	-0.02117	0.07924	0.19348
4449	37.067	0.21287	-0.02355	0.20408	0.153	-0.09396	0.26541	0.19971	-0.13256	0.1862	-0.00826	-0.23965	0.27934	-0.02118	0.07925	0.19354
4450	37.075	0.21297	-0.02375	0.20406	0.15308	-0.09403	0.26547	0.19981	-0.1327	0.18626	-0.00821	-0.23965	0.27941	-0.02118	0.07926	0.19359
4451	37.083	0.21307	-0.02397	0.20403	0.15317	-0.0941	0.26553	0.19991	-0.13285	0.18632	-0.00817	-0.23965	0.27947	-0.02119	0.07926	0.19364
4452	37.092	0.21317	-0.02414	0.20402	0.15326	-0.09418	0.2656	0.20001	-0.13299	0.18638	-0.00813	-0.23965	0.27953	-0.02119	0.07927	0.19369
4453	37.1	0.21329	-0.02427	0.20402	0.15336	-0.09426	0.26565	0.2001	-0.13312	0.18644	-0.0081	-0.23965	0.2796	-0.0212	0.07927	0.19374
4454	37.108	0.21339	-0.02445	0.204	0.15345	-0.09435	0.26571	0.20019	-0.13324	0.18649	-0.00806	-0.23966	0.27966	-0.02121	0.07927	0.19379
4455	37.117	0.2135	-0.02467	0.20396	0.15355	-0.09444	0.26576	0.20028	-0.13334	0.18654	-0.00801	-0.23966	0.27972	-0.02121	0.07927	0.19383
4456	37.125	0.21361	-0.02488	0.20392	0.15364	-0.09453	0.2658	0.20037	-0.13344	0.18659	-0.00797	-0.23967	0.27978	-0.02122	0.07927	0.19388
4457	37.133	0.21373	-0.02507	0.20389	0.15374	-0.09462	0.26585	0.20046	-0.13354	0.18664	-0.00793	-0.23968	0.27984	-0.02122	0.07927	0.19392
4458	37.142	0.21385	-0.02524	0.20387	0.15385	-0.09472	0.26589	0.20055	-0.13362	0.18668	-0.00788	-0.23969	0.2799	-0.02122	0.07927	0.19397
4459	37.15	0.21399	-0.02539	0.20385	0.15395	-0.09481	0.26593	0.20064	-0.1337	0.18672	-0.00784	-0.23969	0.27995	-0.02122	0.07927	0.19401
4460	37.158	0.21413	-0.02555	0.20385	0.15406	-0.09491	0.26597	0.20072	-0.13376	0.18676	-0.00779	-0.2397	0.28	-0.02121	0.07927	0.19406
4461	37.167	0.21429	-0.0257	0.20385	0.15417	-0.095	0.26601	0.2008	-0.13382	0.18681	-0.00775	-0.23971	0.28005	-0.02121	0.07927	0.1941
4462	37.175	0.21446	-0.02587	0.20386	0.15428	-0.0951	0.26604	0.20088	-0.13386	0.18686	-0.00771	-0.23973	0.28009	-0.0212	0.07928	0.19414
4463	37.183	0.21465	-0.02604	0.20388	0.15439	-0.0952	0.26608	0.20096	-0.13391	0.1869	-0.00768	-0.23975	0.28013	-0.02119	0.07928	0.19418
4464	37.192	0.21485	-0.02621	0.20391	0.15451	-0.09531	0.26611	0.20104	-0.13399	0.18695	-0.00764	-0.23977	0.28016	-0.02118	0.07929	0.19423
4465	37.2	0.21507	-0.02637	0.20395	0.15463	-0.09542	0.26614	0.20113	-0.13408	0.18699	-0.00761	-0.23979	0.28019	-0.02117	0.07929	0.19427
4466	37.208	0.2153	-0.02651	0.20399	0.15474	-0.09553	0.26616	0.20121	-0.13418	0.18703	-0.00758	-0.2398	0.28022	-0.02116	0.0793	0.19432
4467	37.217	0.21556	-0.02664	0.20403	0.15486	-0.09564	0.26619	0.20131	-0.13429	0.18706	-0.00755	-0.23982	0.28023	-0.02115	0.07931	0.19436
4468	37.225	0.2158	-0.02677	0.20406	0.15498	-0.09575	0.26622	0.2014	-0.13442	0.1871	-0.00753	-0.23984	0.28025	-0.02114	0.07932	0.1944
4469	37.233	0.21604	-0.0269	0.20407	0.15511	-0.09587	0.26625	0.2015	-0.13456	0.18714	-0.00751	-0.23986	0.28025	-0.02113	0.07933	0.19443
